<svg width="64" height="64" viewBox="0 0 64 64" fill="none" xmlns="http://www.w3.org/2000/svg">
<g clip-path="url(#clip0_855_1971)">
<g clip-path="url(#clip1_855_1971)">
<rect width="64" height="64" fill="white"/>
<g clip-path="url(#clip2_855_1971)">
<path d="M44.2114 322.315L492.801 63.3224L319.807 -236.31L-128.782 22.6827L44.2114 322.315Z" fill="#535354"/>
<g filter="url(#filter0_d_855_1971)">
<path d="M492.801 63.3224L319.807 -236.31L-128.782 22.6827L44.2114 322.315L492.801 63.3224ZM195.256 -27.4566L195.331 -27.8111C196.181 -31.4345 201.413 -33.0646 204.171 -30.5661C206.936 -28.0711 205.86 -22.696 202.347 -21.4745C198.836 -20.247 194.647 -23.7886 195.256 -27.4566ZM89.9929 -5.89868C88.8271 -13.5674 84.6691 -18.5178 81.9432 -25.4216C75.8104 -40.9614 95.6256 -68.55 105.622 -45.2689C107.808 -40.1707 109.203 -34.2726 113.629 -30.9309C118.164 -27.5089 124.378 -27.9081 130.013 -27.2225C135.654 -26.5403 142.139 -23.3888 142.456 -17.7151C142.724 -13.0114 138.507 -9.30631 134.312 -7.1644C130.124 -5.02593 125.334 -3.47465 122.474 0.261524C117.45 6.82199 120.194 17.7501 113.852 23.0499C109.495 26.692 102.497 25.5387 98.2807 21.7167C90.5163 14.6776 91.4243 3.54232 89.9844 -5.88577L89.9929 -5.89868ZM98.3261 153.433C96.1867 148.843 88.7533 138.593 93.2251 134.293C94.7694 132.81 98.871 132.759 100.993 131.103C103.029 129.519 104.368 127.252 106.153 125.439C109.506 122.049 112.037 120.34 116.958 122.109C124.86 124.954 124.68 132.225 127.182 138.851C127.476 139.623 127.873 140.393 128.369 141.073C130.13 143.501 129.054 146.983 126.258 148.053C124.719 148.646 123.078 149.05 121.491 149.367C116.726 150.328 111.502 151.115 108.653 155.477C108.013 156.454 107.212 157.332 106.194 157.903C102.12 160.184 99.7599 156.496 98.3252 153.418L98.3261 153.433Z" fill="#858587"/>
</g>
<g filter="url(#filter1_d_855_1971)">
<path d="M492.801 63.3224L319.807 -236.31L-128.782 22.6827L44.2114 322.315L492.801 63.3224ZM270.603 -66.4514C269.083 -79.7329 288.942 -84.0548 297.842 -78.6945C301.441 -76.5216 304.383 -72.8348 304.602 -68.6302C304.811 -64.6358 302.512 -60.8399 299.432 -58.3023C291.089 -51.4398 272.102 -53.3981 270.603 -66.4514ZM86.1684 39.041C85.2118 35.1188 85.2451 31.0325 84.8399 27.0157C83.1861 10.5039 73.3759 1.84139 65.4419 -11.3481C57.0566 -25.2918 66.0962 -45.3966 71.4053 -58.7852C74.8485 -67.4769 79.6405 -77.3548 88.8055 -79.2025C93.9707 -80.243 99.3865 -78.28 103.595 -75.0928C107.8 -71.9116 111.006 -67.602 114.089 -63.3255C121.151 -53.5395 128.067 -43.3977 137.486 -35.8679C146.909 -28.3321 159.473 -23.6722 171.131 -26.7119C179.548 -28.9026 186.512 -34.7692 194.57 -38.0387C202.63 -41.3021 213.639 -40.9226 218.025 -33.3951C221.665 -27.1466 218.627 -18.609 212.844 -14.2875C207.061 -9.9659 199.381 -9.09558 192.179 -9.5799C184.978 -10.0642 177.87 -11.7534 170.649 -11.9391C163.428 -12.1248 155.749 -10.5759 150.543 -5.57268C144.545 0.199464 143.115 9.11897 139.456 16.5933C133.85 28.0595 123.078 35.9491 112.71 43.3809C106.843 47.5835 99.311 51.956 92.8769 48.6713C89.283 46.839 87.1216 42.9572 86.159 39.0385L86.1684 39.041ZM53.985 128.679C54.12 126.012 57.2637 124.717 59.8881 124.248C66.5848 123.042 73.9903 122.802 80.5098 124.895C86.534 126.834 90.6151 127.258 94.9217 120.905C97.8481 116.594 99.4964 111.272 103.494 107.933C108.818 103.493 117.056 104.019 122.981 107.637C128.906 111.256 132.898 117.341 135.967 123.567C139.035 129.794 141.417 136.393 145.163 142.244C154.405 156.692 170.792 164.866 187.005 170.391C189.486 171.235 192.093 172.104 193.928 173.984C195.764 175.865 196.494 179.119 194.776 181.102C192.783 183.411 189.078 182.697 186.227 181.587C174.188 176.895 163.801 168.726 152.036 163.39C140.27 158.053 125.644 155.926 115.013 163.247C109.811 166.834 104.619 172.772 98.5381 171.025C92.3949 169.266 91.1653 161.363 89.1646 155.287C85.3555 143.703 74.3409 134.833 62.2241 133.598C58.6826 133.238 53.8134 132.222 53.9935 128.666L53.985 128.679Z" fill="#9F9FA1"/>
</g>
<g filter="url(#filter2_d_855_1971)">
<path d="M492.801 63.3224L319.807 -236.31L98.001 -108.25C99.0024 -108.022 99.9931 -107.715 100.948 -107.291C111.193 -102.779 113.721 -89.808 117.216 -79.1691C121.846 -65.0711 130.973 -51.8593 144.291 -45.3259C157.609 -38.7925 175.32 -40.3967 185.284 -51.3588C191.543 -58.2403 196.781 -69.2386 205.999 -67.9689C213.457 -66.945 217.015 -58.2126 223.328 -54.1151C230.531 -49.4443 240.503 -51.6621 247.292 -56.8924C254.088 -62.1261 258.505 -69.7662 263.088 -77.0225C267.674 -84.2728 272.888 -91.5975 280.509 -95.5259C293.445 -102.196 311.431 -95.657 317.108 -82.219C322.782 -68.7871 314.918 -51.3426 301.11 -46.7346C292.351 -43.8109 282.824 -45.6294 273.591 -46.1235C264.361 -46.6116 253.937 -45.148 248.309 -37.8235C239.08 -25.8234 247.649 -4.89027 235.93 4.6885C230.545 9.09182 222.747 9.03946 216.007 7.29752C209.268 5.55558 202.927 2.37695 196.073 1.15616C181.305 -1.47974 165.282 6.30879 158.231 19.5527C154.425 26.7041 153.025 35.1508 148.013 41.5122C142.3 48.758 132.975 51.96 124.099 54.4878C115.223 57.0156 105.845 59.474 99.1873 65.8585C92.5334 72.249 90.0477 84.0634 96.6188 90.5689C104.731 98.5976 118.683 93.0514 129.527 96.5706C143.738 101.183 147.868 118.71 154.874 131.923C162.36 146.035 175.447 157.072 190.609 162.061C197.028 164.173 203.862 165.277 209.742 168.61C215.621 171.943 220.483 178.429 219.221 185.07C217.306 195.124 203.828 197.817 193.891 195.372C180.007 191.961 168.094 183.275 155.062 177.375C142.04 171.478 125.866 168.687 114.1 176.79C110.009 179.608 106.79 183.536 102.827 186.534C98.8646 189.533 93.6003 191.59 88.9322 189.859C84.2546 188.125 81.5901 183.095 80.6052 178.198C79.6203 173.302 79.878 168.223 78.8538 163.341C76.543 152.266 67.1393 143.01 56.0385 140.869C47.4284 139.216 35.7679 139.836 33.0687 131.486C30.4871 123.493 40.1704 116.727 48.5425 116.144C56.9146 115.562 65.9051 117.818 73.3575 113.971C80.897 110.081 84.3792 100.808 83.9033 92.3171C83.4239 83.8206 78.2342 77.2766 76.8432 69.3145C75.6475 62.478 77.7575 54.516 77.1313 47.4227C75.765 31.9754 70.4837 16.8469 61.7417 4.01202C55.3862 -5.31074 47.1786 -13.684 43.5996 -24.386C39.8046 -35.7383 41.8188 -48.3832 46.6137 -59.3335C51.4086 -70.2838 58.7913 -79.8597 66.101 -89.3135C66.3538 -89.6353 66.5972 -89.9596 66.8501 -90.2814L-128.801 22.6776L44.1994 322.322L492.801 63.3224Z" fill="#B9B9BB"/>
</g>
<g filter="url(#filter3_d_855_1971)">
<path d="M44.223 322.309L-128.77 22.6758L43.1114 -76.5601C41.5199 -72.3413 40.1007 -68.0458 38.8757 -63.7031L32.5312 -50.3797C25.6911 -35.6517 30.5446 -18.0313 38.4324 -3.81662C46.3144 10.4017 57.1184 23.0372 63.1982 38.1122C69.278 53.1871 69.4261 72.4216 57.7278 83.6664C49.5211 91.5526 37.5919 93.7104 26.8419 97.44C16.0883 101.164 4.77795 108.469 3.48779 119.784C2.28949 130.264 10.4024 139.675 19.4777 145.062C28.5532 150.449 38.9962 153.329 47.7036 159.281C57.9971 166.322 65.308 177.602 67.5309 189.878C68.8515 197.194 68.4466 204.795 70.4812 211.938C72.5159 219.081 78.0191 226.083 85.427 226.496C91.7288 226.845 97.2968 222.344 101.079 217.292C104.861 212.24 107.581 206.371 111.996 201.864C122.021 191.642 138.519 190.865 152.292 194.843C166.064 198.82 178.383 206.69 191.762 211.838C205.141 216.985 220.963 219.125 233.269 211.804C249.888 201.913 252.304 174.895 237.714 162.152C227.505 153.241 212.744 151.958 201.017 145.17C180.614 133.354 173.354 107.918 167.876 84.9766C164.874 72.3998 161.85 59.3717 164.204 46.6666C166.555 33.9554 175.802 21.5857 188.597 19.8793C205.897 17.5778 223.959 34.564 239.31 26.2761C257.167 16.6371 248.78 -15.1562 265.575 -26.5385C283.119 -38.4329 307.466 -15.7111 327.219 -23.4076C336.405 -26.9857 342.124 -36.7351 343.299 -46.5379C344.464 -56.3435 341.791 -66.2107 338.325 -75.4599C334.235 -86.3701 328.765 -97.1549 319.922 -104.737C311.078 -112.32 298.24 -116.102 287.467 -111.72C275.169 -106.721 269.025 -93.3301 261.835 -82.1636C254.642 -70.9878 241.97 -60.172 229.442 -64.6196C222.478 -67.0951 217.93 -73.6028 213.001 -79.1148C208.072 -84.6269 201.098 -89.7732 193.907 -88.0829C182.808 -85.4695 181.183 -70.0926 172.978 -62.1755C164.825 -54.3206 150.76 -55.5171 141.832 -62.5151C132.906 -69.507 128.366 -80.7965 126.271 -91.9396C124.446 -101.648 124.149 -111.721 120.858 -121.039C120.817 -121.151 120.771 -121.261 120.73 -121.373L319.807 -236.311L479.801 40.8057C479.478 40.6899 479.155 40.5569 478.835 40.4034C475.346 38.8274 472.494 35.1495 468.99 33.7805C465.757 32.5011 462.364 33.4284 459.999 35.4722C457.566 37.511 456.027 40.5872 454.891 43.8317C451.56 53.5013 451.692 65.0919 447.367 74.133C444.343 80.4967 439.367 85.121 433.905 88.8078C431.279 90.6243 428.457 92.2875 426.337 94.7655C424.354 97.0368 423.293 100.264 423.363 103.412L44.223 322.309Z" fill="#CCCCCF"/>
</g>
<g filter="url(#filter4_d_855_1971)">
<path d="M202.366 231.005C188.103 229.188 174.132 224.19 161.06 217.986C153.04 214.179 145.057 209.855 136.286 208.518C127.516 207.182 117.53 209.527 112.423 216.774C104.697 227.731 111.009 244.478 103.137 255.335C94.8464 266.777 75.5721 263.395 66.4397 252.592C57.3039 241.782 55.3677 226.839 53.2944 212.847C51.221 198.855 48.0503 183.818 37.4623 174.43C26.0107 164.278 8.88577 163.458 -3.79167 154.885C-20.9822 143.26 -25.82 116.841 -13.8599 99.9165C-0.873936 81.5364 26.2904 76.3043 36.8541 56.4222C43.3011 44.2863 41.7831 29.1424 36.1836 16.5706C34.703 13.2465 32.9713 10.0675 31.0541 6.99548C19.4577 -11.5983 16.2746 -34.3225 23.1113 -55.121C24.493 -59.3305 26.0316 -63.5028 27.6896 -67.6481L-128.784 22.6921L44.2053 322.319L202.354 231.012L202.366 231.005Z" fill="#DDDDE0"/>
</g>
<g filter="url(#filter5_d_855_1971)">
<path d="M180.433 243.668C176.229 241.373 172.236 238.684 168.546 235.621C162.685 230.759 157.366 224.945 150.351 221.995C143.337 219.046 133.782 220.135 130.107 226.796C126.873 232.658 129.428 239.86 129.817 246.556C131.102 268.41 105.835 285.147 84.4458 280.533C63.0661 275.921 47.7091 255.911 41.9428 234.79C36.9192 216.365 36.7153 194.629 22.3165 182.08C12.1083 173.184 -2.73173 171.556 -13.5555 163.431C-26.0341 154.056 -31.1583 136.879 -28.4925 121.509C-25.8267 106.138 -16.348 92.5958 -4.58394 82.376C9.80865 69.8716 29.6782 58.2481 29.7308 39.153C29.7694 25.9869 19.8426 15.2024 14.5192 3.1504C5.53442 -17.191 10.0079 -39.9969 17.1917 -61.6031L-128.797 22.6836L44.1994 322.322L180.421 243.675L180.433 243.668ZM-77.4044 83.4371C-79.2155 78.6979 -76.8809 72.8515 -79.5989 68.5719C-80.7907 66.6871 -82.7718 65.4659 -84.3238 63.8689C-86.7445 61.3753 -88.0981 57.898 -88.0959 54.421C-88.0996 50.9474 -86.7765 47.5068 -84.5321 44.8607C-82.4002 42.3513 -79.4973 40.5555 -77.5504 37.9053C-72.7952 31.4445 -74.9442 21.9623 -71.056 14.9393C-70.0601 13.1418 -68.6237 11.5135 -66.7381 10.7045C-64.8491 9.90158 -62.4682 10.0611 -60.9508 11.4462C-59.4462 12.8228 -59.0662 15.0005 -58.4526 16.9474C-57.4023 20.2722 -55.4322 23.2976 -52.8069 25.5933C-50.0145 28.0401 -46.51 29.6763 -44.0885 32.4891C-40.3976 36.7823 -39.9361 43.2036 -41.8123 48.5456C-43.6885 53.8876 -47.5632 58.282 -51.8056 62.0258C-56.042 65.7661 -60.7242 68.9967 -64.8477 72.8636C-67.4744 75.331 -69.8853 78.0892 -71.6566 81.2372C-72.2212 82.2344 -73.0559 85.6647 -74.0279 86.1221C-75.5446 86.8379 -76.9689 84.592 -77.4044 83.4371Z" fill="#EFEFF2"/>
</g>
<g filter="url(#filter6_d_855_1971)">
<path d="M-94.0371 75.0301C-96.584 71.6824 -100.298 69.2406 -102.231 65.5064C-105.097 59.962 -103.214 53.0577 -99.8717 47.7962C-96.533 42.5287 -91.8771 38.2026 -88.5677 32.9121C-84.0905 25.7487 -82.3396 17.2751 -79.8084 9.21374C-77.2772 1.15243 -73.5402 -7.08566 -66.5329 -11.7866C-59.5195 -16.4909 -48.5037 -16.0033 -44.0221 -8.83476C-40.8093 -3.69822 -41.7805 2.93508 -40.3361 8.82094C-37.3801 20.8335 -24.5685 29.0176 -23.1554 41.3137C-22.1898 49.7132 -27.0006 57.8042 -33.1167 63.6206C-39.2329 69.4369 -46.7014 73.629 -53.2133 78.9947C-65.2174 88.8816 -70.0431 100.649 -75.9446 114.172L44.2233 322.309L89.5787 296.123C88.8749 296.105 88.1643 296.076 87.4621 296.034C61.4642 294.432 37.2028 276.279 28.2894 251.766C21.4946 233.076 22.7254 211.008 10.5041 195.324C-4.38265 176.225 -34.8472 172.743 -46.0995 151.306C-56.3788 131.72 -44.6564 107.27 -28.3437 92.3862C-19.4627 84.2864 -9.21541 77.683 -1.05995 68.8515C7.09549 60.02 13.1207 48.0237 10.8873 36.1853C8.95988 25.968 1.3957 17.8944 -3.6156 8.78638C-12.9805 -8.23527 -13.0036 -27.5582 -8.56328 -46.7335L-128.773 22.6697L-89.4104 90.8482C-89.5808 85.1936 -90.6462 79.4805 -94.0311 75.0266L-94.0371 75.0301Z" fill="white"/>
</g>
</g>
<g style="mix-blend-mode:multiply">
<rect width="64" height="64" fill="url(#paint0_linear_855_1971)"/>
</g>
</g>
<path d="M45.5391 15.0398C45.9924 14.972 46.4004 15.3236 46.4004 15.782V40.1775L46.3984 40.1765C46.3632 43.4598 43.692 46.1109 40.4004 46.1111C37.0868 46.1111 34.4005 43.4247 34.4004 40.1111C34.4004 36.7974 37.0867 34.1111 40.4004 34.1111C41.7507 34.1112 42.9974 34.5564 44 35.3093V24.8699L24.7998 27.7507V42.5105C24.7998 45.8242 22.1135 48.5105 18.7998 48.5105C15.4862 48.5104 12.7998 45.8241 12.7998 42.5105C12.8 39.197 15.4863 36.5106 18.7998 36.5105C20.1507 36.5105 21.3975 36.9573 22.4004 37.7107V19.157C22.4004 18.7857 22.6719 18.4699 23.0391 18.4148L45.5391 15.0398Z" fill="white"/>
</g>
<defs>
<filter id="filter0_d_855_1971" x="-130.782" y="-238.31" width="633.582" height="570.626" filterUnits="userSpaceOnUse" color-interpolation-filters="sRGB">
<feFlood flood-opacity="0" result="BackgroundImageFix"/>
<feColorMatrix in="SourceAlpha" type="matrix" values="0 0 0 0 0 0 0 0 0 0 0 0 0 0 0 0 0 0 127 0" result="hardAlpha"/>
<feOffset dx="4" dy="4"/>
<feGaussianBlur stdDeviation="3"/>
<feColorMatrix type="matrix" values="0 0 0 0 0 0 0 0 0 0 0 0 0 0 0 0 0 0 0.4 0"/>
<feBlend mode="normal" in2="BackgroundImageFix" result="effect1_dropShadow_855_1971"/>
<feBlend mode="normal" in="SourceGraphic" in2="effect1_dropShadow_855_1971" result="shape"/>
</filter>
<filter id="filter1_d_855_1971" x="-130.782" y="-238.31" width="633.582" height="570.626" filterUnits="userSpaceOnUse" color-interpolation-filters="sRGB">
<feFlood flood-opacity="0" result="BackgroundImageFix"/>
<feColorMatrix in="SourceAlpha" type="matrix" values="0 0 0 0 0 0 0 0 0 0 0 0 0 0 0 0 0 0 127 0" result="hardAlpha"/>
<feOffset dx="4" dy="4"/>
<feGaussianBlur stdDeviation="3"/>
<feColorMatrix type="matrix" values="0 0 0 0 0 0 0 0 0 0 0 0 0 0 0 0 0 0 0.4 0"/>
<feBlend mode="normal" in2="BackgroundImageFix" result="effect1_dropShadow_855_1971"/>
<feBlend mode="normal" in="SourceGraphic" in2="effect1_dropShadow_855_1971" result="shape"/>
</filter>
<filter id="filter2_d_855_1971" x="-130.801" y="-238.31" width="633.601" height="570.633" filterUnits="userSpaceOnUse" color-interpolation-filters="sRGB">
<feFlood flood-opacity="0" result="BackgroundImageFix"/>
<feColorMatrix in="SourceAlpha" type="matrix" values="0 0 0 0 0 0 0 0 0 0 0 0 0 0 0 0 0 0 127 0" result="hardAlpha"/>
<feOffset dx="4" dy="4"/>
<feGaussianBlur stdDeviation="3"/>
<feColorMatrix type="matrix" values="0 0 0 0 0 0 0 0 0 0 0 0 0 0 0 0 0 0 0.4 0"/>
<feBlend mode="normal" in2="BackgroundImageFix" result="effect1_dropShadow_855_1971"/>
<feBlend mode="normal" in="SourceGraphic" in2="effect1_dropShadow_855_1971" result="shape"/>
</filter>
<filter id="filter3_d_855_1971" x="-130.77" y="-238.311" width="620.571" height="570.619" filterUnits="userSpaceOnUse" color-interpolation-filters="sRGB">
<feFlood flood-opacity="0" result="BackgroundImageFix"/>
<feColorMatrix in="SourceAlpha" type="matrix" values="0 0 0 0 0 0 0 0 0 0 0 0 0 0 0 0 0 0 127 0" result="hardAlpha"/>
<feOffset dx="4" dy="4"/>
<feGaussianBlur stdDeviation="3"/>
<feColorMatrix type="matrix" values="0 0 0 0 0 0 0 0 0 0 0 0 0 0 0 0 0 0 0.4 0"/>
<feBlend mode="normal" in2="BackgroundImageFix" result="effect1_dropShadow_855_1971"/>
<feBlend mode="normal" in="SourceGraphic" in2="effect1_dropShadow_855_1971" result="shape"/>
</filter>
<filter id="filter4_d_855_1971" x="-130.784" y="-238.311" width="606.372" height="570.63" filterUnits="userSpaceOnUse" color-interpolation-filters="sRGB">
<feFlood flood-opacity="0" result="BackgroundImageFix"/>
<feColorMatrix in="SourceAlpha" type="matrix" values="0 0 0 0 0 0 0 0 0 0 0 0 0 0 0 0 0 0 127 0" result="hardAlpha"/>
<feOffset dx="4" dy="4"/>
<feGaussianBlur stdDeviation="3"/>
<feColorMatrix type="matrix" values="0 0 0 0 0 0 0 0 0 0 0 0 0 0 0 0 0 0 0.4 0"/>
<feBlend mode="normal" in2="BackgroundImageFix" result="effect1_dropShadow_855_1971"/>
<feBlend mode="normal" in="SourceGraphic" in2="effect1_dropShadow_855_1971" result="shape"/>
</filter>
<filter id="filter5_d_855_1971" x="-130.797" y="-238.311" width="591.426" height="570.633" filterUnits="userSpaceOnUse" color-interpolation-filters="sRGB">
<feFlood flood-opacity="0" result="BackgroundImageFix"/>
<feColorMatrix in="SourceAlpha" type="matrix" values="0 0 0 0 0 0 0 0 0 0 0 0 0 0 0 0 0 0 127 0" result="hardAlpha"/>
<feOffset dx="4" dy="4"/>
<feGaussianBlur stdDeviation="3"/>
<feColorMatrix type="matrix" values="0 0 0 0 0 0 0 0 0 0 0 0 0 0 0 0 0 0 0.4 0"/>
<feBlend mode="normal" in2="BackgroundImageFix" result="effect1_dropShadow_855_1971"/>
<feBlend mode="normal" in="SourceGraphic" in2="effect1_dropShadow_855_1971" result="shape"/>
</filter>
<filter id="filter6_d_855_1971" x="-130.773" y="-48.7335" width="230.352" height="381.042" filterUnits="userSpaceOnUse" color-interpolation-filters="sRGB">
<feFlood flood-opacity="0" result="BackgroundImageFix"/>
<feColorMatrix in="SourceAlpha" type="matrix" values="0 0 0 0 0 0 0 0 0 0 0 0 0 0 0 0 0 0 127 0" result="hardAlpha"/>
<feOffset dx="4" dy="4"/>
<feGaussianBlur stdDeviation="3"/>
<feColorMatrix type="matrix" values="0 0 0 0 0 0 0 0 0 0 0 0 0 0 0 0 0 0 0.4 0"/>
<feBlend mode="normal" in2="BackgroundImageFix" result="effect1_dropShadow_855_1971"/>
<feBlend mode="normal" in="SourceGraphic" in2="effect1_dropShadow_855_1971" result="shape"/>
</filter>
<linearGradient id="paint0_linear_855_1971" x1="64" y1="1.90735e-06" x2="-1.90735e-06" y2="64" gradientUnits="userSpaceOnUse">
<stop stop-color="#2B5B6F"/>
<stop offset="1" stop-color="#417B95"/>
</linearGradient>
<clipPath id="clip0_855_1971">
<rect width="64" height="64" rx="12" fill="white"/>
</clipPath>
<clipPath id="clip1_855_1971">
<rect width="64" height="64" fill="white"/>
</clipPath>
<clipPath id="clip2_855_1971">
<rect width="518" height="346" fill="white" transform="translate(492.801 63.3224) rotate(150)"/>
</clipPath>
</defs>
</svg>
